<?xml version="1.0" standalone="no"?>
<!DOCTYPE svg PUBLIC "-//W3C//DTD SVG 20010904//EN"
 "http://www.w3.org/TR/2001/REC-SVG-20010904/DTD/svg10.dtd">
<svg version="1.0" xmlns="http://www.w3.org/2000/svg"
 width="200.000000pt" height="200.000000pt" viewBox="0 0 200.000000 200.000000"
 preserveAspectRatio="xMidYMid meet">
<metadata>
Created by potrace 1.10, written by Peter Selinger 2001-2011
</metadata>
<g transform="translate(0.000000,200.000000) scale(0.100000,-0.100000)"
fill="#000000" stroke="none">
<path d="M893 1573 c-73 -23 -82 -28 -85 -54 -4 -22 0 -28 19 -32 27 -5 29 1
6 19 -16 12 -15 13 10 14 21 0 30 -6 34 -20 5 -19 6 -19 18 -3 20 27 169 25
190 -3 13 -17 14 -17 15 -2 0 11 12 20 32 26 17 4 33 13 35 18 3 10 -157 65
-182 64 -5 -1 -47 -13 -92 -27z m153 -9 c84 -27 81 -25 59 -34 -11 -4 -38 -3
-60 2 -22 5 -74 6 -115 2 -83 -7 -86 2 -7 27 67 22 65 22 123 3z"/>
<path d="M756 1442 c3 -20 13 -44 21 -52 14 -13 15 -11 9 20 l-6 36 79 -1 c53
-1 87 -7 103 -17 22 -14 27 -14 53 0 19 10 60 16 111 17 80 2 81 1 76 -22 -6
-30 14 -30 22 0 14 54 13 55 -86 49 -51 -2 -105 -11 -120 -19 -24 -11 -32 -11
-55 0 -16 8 -70 17 -121 20 l-93 6 7 -37z"/>
<path d="M828 1394 c-30 -16 -58 -61 -58 -94 0 -81 108 -136 170 -87 48 37 61
87 35 137 -28 54 -94 74 -147 44z m91 -19 c31 -15 54 -65 44 -93 -3 -9 -15
-27 -26 -39 -40 -45 -118 -23 -140 39 -10 27 13 77 42 93 33 18 46 18 80 0z"/>
<path d="M830 1345 c-15 -17 -7 -19 21 -5 26 15 59 -4 59 -33 0 -50 -63 -67
-80 -22 -11 28 -20 33 -20 10 0 -23 37 -55 63 -55 50 0 76 70 39 103 -23 21
-65 22 -82 2z"/>
<path d="M860 1324 c0 -10 31 -36 37 -31 10 10 -6 37 -22 37 -8 0 -15 -3 -15
-6z"/>
<path d="M1095 1401 c-55 -23 -79 -95 -50 -150 26 -52 85 -70 149 -45 13 5 16
-2 16 -42 -1 -151 -153 -255 -288 -198 -46 19 -92 62 -92 86 0 28 67 95 107
109 32 10 38 9 50 -7 14 -19 15 -19 28 0 21 28 76 14 127 -34 46 -45 48 -46
48 -26 0 26 -78 85 -120 92 -30 5 -38 10 -30 19 7 8 3 18 -14 34 l-24 23 -17
-26 c-10 -14 -15 -32 -12 -38 3 -9 -6 -13 -24 -14 -39 -2 -102 -45 -121 -84
-20 -41 -30 -26 -34 49 -1 31 -7 57 -13 59 -17 6 -13 -93 5 -136 17 -42 71
-102 91 -102 7 0 13 -4 13 -9 0 -15 58 -33 110 -33 54 0 110 18 110 35 0 6 3
7 6 4 14 -14 64 36 89 88 22 44 26 66 24 117 -1 35 3 77 10 93 35 84 -58 171
-144 136z m84 -26 c32 -16 41 -33 41 -78 0 -95 -142 -106 -166 -13 -8 32 14
77 46 93 32 16 45 16 79 -2z m-160 -158 c8 -10 7 -18 -2 -31 -12 -16 -14 -16
-26 -2 -14 16 -9 46 7 46 5 0 15 -6 21 -13z"/>
<path d="M1097 1353 c-15 -14 -6 -23 13 -13 27 15 60 -4 60 -33 0 -52 -60 -65
-84 -19 -13 24 -15 25 -16 6 0 -26 30 -54 58 -54 51 0 81 70 44 103 -19 17
-63 23 -75 10z"/>
<path d="M1130 1315 c7 -8 16 -15 21 -15 5 0 6 7 3 15 -4 8 -13 15 -21 15 -13
0 -13 -3 -3 -15z"/>
<path d="M810 953 c0 -24 16 -48 23 -36 8 13 -3 53 -14 53 -5 0 -9 -8 -9 -17z"/>
<path d="M844 957 c3 -10 6 -23 6 -28 0 -5 5 -9 10 -9 14 0 12 13 -6 36 -14
17 -15 17 -10 1z"/>
<path d="M1140 946 c-12 -33 -12 -36 -1 -36 10 0 25 50 17 58 -3 2 -10 -7 -16
-22z"/>
<path d="M1171 948 c-9 -24 -5 -42 8 -33 13 8 20 44 10 51 -5 3 -13 -5 -18
-18z"/>
</g>
</svg>
