<?xml version="1.0" standalone="no"?>
<!DOCTYPE svg PUBLIC "-//W3C//DTD SVG 20010904//EN"
 "http://www.w3.org/TR/2001/REC-SVG-20010904/DTD/svg10.dtd">
<svg version="1.0" xmlns="http://www.w3.org/2000/svg"
 width="200.000000pt" height="200.000000pt" viewBox="0 0 200.000000 200.000000"
 preserveAspectRatio="xMidYMid meet">
<metadata>
Created by potrace 1.10, written by Peter Selinger 2001-2011
</metadata>
<g transform="translate(0.000000,200.000000) scale(0.100000,-0.100000)"
fill="#000000" stroke="none">
<path d="M893 1573 c-73 -23 -82 -28 -85 -54 -4 -22 0 -28 19 -32 27 -5 29 1
6 19 -16 12 -15 13 10 14 21 0 30 -6 34 -20 5 -19 6 -19 18 -3 20 27 169 25
190 -3 13 -17 14 -17 15 -2 0 11 12 20 32 26 17 4 33 13 35 18 3 10 -157 65
-182 64 -5 -1 -47 -13 -92 -27z m153 -9 c84 -27 81 -25 59 -34 -11 -4 -38 -3
-60 2 -22 5 -74 6 -115 2 -83 -7 -86 2 -7 27 67 22 65 22 123 3z"/>
<path d="M756 1442 c3 -20 13 -44 21 -52 14 -13 15 -11 9 20 l-6 36 79 -1 c53
-1 87 -7 103 -17 22 -14 27 -14 53 0 19 10 60 16 111 17 80 2 81 1 76 -22 -6
-30 14 -30 22 0 14 54 13 55 -86 49 -51 -2 -105 -11 -120 -19 -24 -11 -32 -11
-55 0 -16 8 -70 17 -121 20 l-93 6 7 -37z"/>
<path d="M828 1394 c-30 -16 -58 -61 -58 -94 0 -81 108 -136 170 -87 48 37 61
87 35 137 -28 54 -94 74 -147 44z m91 -19 c31 -15 54 -65 44 -93 -3 -9 -15
-27 -26 -39 -40 -45 -118 -23 -140 39 -10 27 13 77 42 93 33 18 46 18 80 0z"/>
<path d="M830 1345 c-15 -17 -7 -19 21 -5 26 15 59 -4 59 -33 0 -50 -63 -67
-80 -22 -11 28 -20 33 -20 10 0 -23 37 -55 63 -55 50 0 76 70 39 103 -23 21
-65 22 -82 2z"/>
<path d="M860 1324 c0 -10 31 -36 37 -31 10 10 -6 37 -22 37 -8 0 -15 -3 -15
-6z"/>
<path d="M1095 1401 c-55 -23 -79 -95 -50 -150 26 -52 85 -70 149 -45 13 5 16
-2 16 -42 -1 -151 -153 -255 -288 -198 -46 19 -92 62 -92 86 0 28 67 95 107
109 32 10 38 9 50 -7 14 -19 15 -19 28 0 21 28 76 14 127 -34 46 -45 48 -46
48 -26 0 26 -78 85 -120 92 -30 5 -38 10 -30 19 7 8 3 18 -14 34 l-24 23 -17
-26 c-10 -14 -15 -32 -12 -38 3 -9 -6 -13 -24 -14 -39 -2 -102 -45 -121 -84
-20 -41 -30 -26 -34 49 -1 31 -7 57 -13 59 -17 6 -13 -93 5 -136 17 -42 71
-102 91 -102 7 0 13 -4 13 -9 0 -15 58 -33 110 -33 54 0 110 18 110 35 0 6 3
7 6 4 14 -14 64 36 89 88 22 44 26 66 24 117 -1 35 3 77 10 93 35 84 -58 171
-144 136z m84 -26 c32 -16 41 -33 41 -78 0 -95 -142 -106 -166 -13 -8 32 14
77 46 93 32 16 45 16 79 -2z m-160 -158 c8 -10 7 -18 -2 -31 -12 -16 -14 -16
-26 -2 -14 16 -9 46 7 46 5 0 15 -6 21 -13z"/>
<path d="M1097 1353 c-15 -14 -6 -23 13 -13 27 15 60 -4 60 -33 0 -52 -60 -65
-84 -19 -13 24 -15 25 -16 6 0 -26 30 -54 58 -54 51 0 81 70 44 103 -19 17
-63 23 -75 10z"/>
<path d="M1130 1315 c7 -8 16 -15 21 -15 5 0 6 7 3 15 -4 8 -13 15 -21 15 -13
0 -13 -3 -3 -15z"/>
<path d="M810 953 c0 -24 16 -48 23 -36 8 13 -3 53 -14 53 -5 0 -9 -8 -9 -17z"/>
<path d="M844 957 c3 -10 6 -23 6 -28 0 -5 5 -9 10 -9 14 0 12 13 -6 36 -14
17 -15 17 -10 1z"/>
<path d="M1140 946 c-12 -33 -12 -36 -1 -36 10 0 25 50 17 58 -3 2 -10 -7 -16
-22z"/>
<path d="M1171 948 c-9 -24 -5 -42 8 -33 13 8 20 44 10 51 -5 3 -13 -5 -18
-18z"/>
<path d="M1600 725 l0 -125 25 0 25 0 0 125 0 125 -25 0 -25 0 0 -125z"/>
<path d="M1318 785 c3 -36 8 -45 23 -45 16 0 19 7 19 45 0 40 -2 45 -23 45
-20 0 -22 -4 -19 -45z"/>
<path d="M1720 794 c0 -19 -4 -25 -15 -20 -10 4 -15 -1 -15 -14 0 -11 7 -20
15 -20 12 0 15 -13 15 -55 0 -47 3 -57 24 -71 33 -21 71 -15 71 11 0 15 -6 19
-22 17 -21 -3 -23 1 -23 47 0 44 3 51 20 51 14 0 20 7 20 21 0 16 -4 19 -20
14 -16 -5 -20 -2 -20 19 0 21 -5 26 -25 26 -20 0 -25 -5 -25 -26z m38 -35 c-2
-6 -8 -10 -13 -10 -5 0 -11 4 -13 10 -2 6 4 11 13 11 9 0 15 -5 13 -11z"/>
<path d="M180 690 c0 -89 0 -90 25 -90 23 0 24 4 27 61 3 69 22 94 56 73 12
-8 18 -27 20 -73 3 -57 4 -61 27 -61 24 0 25 3 25 64 0 80 -23 116 -75 116
-19 0 -37 -4 -40 -10 -3 -5 -11 -10 -16 -10 -6 0 -7 5 -4 10 4 6 -5 10 -19 10
-26 0 -26 0 -26 -90z"/>
<path d="M404 708 c4 -59 9 -76 26 -90 26 -21 52 -23 83 -7 16 9 22 9 25 0 2
-6 12 -11 23 -11 17 0 19 8 19 90 0 89 0 90 -25 90 -24 0 -25 -3 -25 -60 0
-48 -4 -61 -19 -70 -43 -22 -67 14 -59 90 3 38 2 40 -25 40 l-28 0 5 -72z"/>
<path d="M630 690 c0 -89 0 -90 25 -90 23 0 24 4 27 61 3 65 19 88 52 76 12
-5 16 -20 16 -72 0 -63 1 -65 25 -65 23 0 25 3 25 51 0 58 13 89 38 89 31 0
42 -22 42 -82 0 -56 1 -58 26 -58 26 0 26 0 22 69 -2 50 -9 75 -22 90 -23 25
-77 28 -99 6 -13 -13 -16 -13 -27 0 -15 18 -71 20 -88 3 -9 -9 -12 -9 -12 0 0
7 -11 12 -25 12 -25 0 -25 -1 -25 -90z"/>
<path d="M997 760 c-77 -61 -13 -175 87 -156 41 8 53 21 36 41 -9 11 -16 12
-30 2 -22 -13 -71 0 -78 21 -3 9 15 12 68 12 l72 0 -6 28 c-16 64 -97 93 -149
52z m84 -20 c34 -19 22 -35 -26 -35 -50 0 -55 7 -23 29 27 19 24 19 49 6z"/>
<path d="M1180 690 c0 -89 0 -90 25 -90 24 0 25 3 25 54 0 56 16 86 46 86 8 0
14 9 14 20 0 22 -12 25 -41 10 -13 -7 -19 -7 -19 0 0 5 -11 10 -25 10 -25 0
-25 -1 -25 -90z"/>
<path d="M1411 771 c-8 -5 -11 -16 -8 -24 4 -11 16 -14 44 -10 28 4 42 1 52
-11 7 -9 12 -16 10 -17 -2 -1 -23 -2 -46 -3 -49 -2 -73 -20 -73 -52 0 -42 69
-71 99 -41 11 10 14 10 18 0 3 -7 13 -13 24 -13 17 0 19 8 19 70 0 87 -18 110
-82 110 -24 0 -49 -4 -57 -9z m99 -100 c0 -14 -29 -41 -44 -41 -22 0 -37 25
-24 38 14 14 68 16 68 3z"/>
</g>
</svg>
